<svg xmlns="http://www.w3.org/2000/svg" viewBox="0 0 500.06 105.27"><defs><style>.cls-1{fill:#666;}.cls-2{fill:#ec2c26;}.cls-3{fill:#969696;}</style></defs><title>m360logo-ytel</title><g id="Layer_2" data-name="Layer 2"><g id="Layer_1-2" data-name="Layer 1"><g id="Layer_2-2" data-name="Layer 2"><g id="Layer_4_copy" data-name="Layer 4 copy"><path class="cls-1" d="M128.47,73.41V38.5h1.8a.94.94,0,0,1,1,.82v.06l.31,5.06a21.94,21.94,0,0,1,2.18-2.63,14.5,14.5,0,0,1,2.48-2,11.44,11.44,0,0,1,2.8-1.34,10.31,10.31,0,0,1,3.14-.47,8.37,8.37,0,0,1,6.1,2.23,11.67,11.67,0,0,1,3.09,6.2,12.15,12.15,0,0,1,1.77-3.72A11.09,11.09,0,0,1,155.82,40,10.89,10.89,0,0,1,159,38.51a12.56,12.56,0,0,1,3.56-.51,12,12,0,0,1,4.66.86,9.29,9.29,0,0,1,3.52,2.54A11.54,11.54,0,0,1,173,45.55a18.73,18.73,0,0,1,.77,5.62V73.5h-3.34V51.17q0-5.12-2.21-7.82a7.73,7.73,0,0,0-6.33-2.68,9.33,9.33,0,0,0-3.49.67,8.51,8.51,0,0,0-3,2,9.5,9.5,0,0,0-2,3.29,12.64,12.64,0,0,0-.76,4.57V73.51h-3.34V51.18a12.78,12.78,0,0,0-2-7.79,7,7,0,0,0-5.86-2.8,9,9,0,0,0-5.26,1.7A16.13,16.13,0,0,0,131.86,47v26.4Z"/><path class="cls-1" d="M197.49,37.92a14.39,14.39,0,0,1,5.46,1,12.3,12.3,0,0,1,4.35,3,13.65,13.65,0,0,1,2.88,4.79,19.06,19.06,0,0,1,1,6.53,1.75,1.75,0,0,1-.22,1.05.87.87,0,0,1-.72.29H185.06v.67a23.73,23.73,0,0,0,.92,6.92,14.22,14.22,0,0,0,2.59,5,10.72,10.72,0,0,0,4.07,3,13.46,13.46,0,0,0,5.33,1,15.94,15.94,0,0,0,4.57-.58,16.91,16.91,0,0,0,3.25-1.24,17.82,17.82,0,0,0,2.08-1.24,2.37,2.37,0,0,1,1.13-.58.79.79,0,0,1,.69.35l.92,1.13a9.62,9.62,0,0,1-2.18,1.89,15.88,15.88,0,0,1-3.09,1.56,22.67,22.67,0,0,1-3.65,1,20.17,20.17,0,0,1-3.92.38,16.61,16.61,0,0,1-6.53-1.24A13.86,13.86,0,0,1,186.1,69a16.6,16.6,0,0,1-3.26-5.84,25,25,0,0,1-1.15-7.92,21.58,21.58,0,0,1,1.07-6.94,15.87,15.87,0,0,1,3.09-5.47,14.08,14.08,0,0,1,5-3.6A16.29,16.29,0,0,1,197.49,37.92Zm0,2.48a13.13,13.13,0,0,0-4.84.84,10.6,10.6,0,0,0-3.72,2.48,12.41,12.41,0,0,0-2.48,3.8,17.22,17.22,0,0,0-1.24,5h23a15.37,15.37,0,0,0-.77-5,10.82,10.82,0,0,0-2.17-3.72,9.38,9.38,0,0,0-3.36-2.37,11.17,11.17,0,0,0-4.35-.94Z"/><path class="cls-1" d="M239.45,42.83a.81.81,0,0,1-.77.5,1.89,1.89,0,0,1-1-.43,16,16,0,0,0-1.61-1,13.16,13.16,0,0,0-2.48-1A12.41,12.41,0,0,0,230,40.5a10.48,10.48,0,0,0-3.46.55,8.68,8.68,0,0,0-2.67,1.45,6.63,6.63,0,0,0-1.72,2.12,5.55,5.55,0,0,0-.61,2.48,4.33,4.33,0,0,0,.84,2.73,7.27,7.27,0,0,0,2.21,1.85,17,17,0,0,0,3.1,1.33l3.56,1.12q1.82.56,3.56,1.24A13.37,13.37,0,0,1,238,57.11a8.05,8.05,0,0,1,2.21,2.48,7.12,7.12,0,0,1,.84,3.59,10.86,10.86,0,0,1-.83,4.24,9.63,9.63,0,0,1-2.38,3.4A11.46,11.46,0,0,1,234,73.1a15,15,0,0,1-5.2.84,15.68,15.68,0,0,1-6.35-1.18,17.83,17.83,0,0,1-4.78-3.08l.81-1.24a1.36,1.36,0,0,1,.38-.42,1.07,1.07,0,0,1,.6-.14,1.94,1.94,0,0,1,1.13.56,14,14,0,0,0,1.74,1.24,14.34,14.34,0,0,0,2.67,1.24,12,12,0,0,0,3.95.56,11.32,11.32,0,0,0,3.9-.62,8.11,8.11,0,0,0,2.8-1.66,7,7,0,0,0,1.7-2.48,7.87,7.87,0,0,0,.58-3,4.83,4.83,0,0,0-.84-2.92,7.23,7.23,0,0,0-2.21-2,15.53,15.53,0,0,0-3.1-1.36l-3.59-1.13q-1.84-.56-3.59-1.24a12.9,12.9,0,0,1-3.1-1.69,8.13,8.13,0,0,1-2.21-2.48,7.15,7.15,0,0,1-.84-3.64,8.33,8.33,0,0,1,.81-3.59,9,9,0,0,1,2.3-3,11.27,11.27,0,0,1,3.64-2.07,14.12,14.12,0,0,1,4.81-.77,16.13,16.13,0,0,1,5.67.93,13.85,13.85,0,0,1,4.54,2.83Z"/><path class="cls-1" d="M269.64,42.83a.81.81,0,0,1-.77.5,1.89,1.89,0,0,1-1-.43,16,16,0,0,0-1.61-1,13.15,13.15,0,0,0-2.48-1,12.41,12.41,0,0,0-3.56-.43,10.48,10.48,0,0,0-3.39.48,8.61,8.61,0,0,0-2.67,1.45,6.61,6.61,0,0,0-1.72,2.12,5.52,5.52,0,0,0-.62,2.48,4.33,4.33,0,0,0,.84,2.73,7.26,7.26,0,0,0,2.21,1.85,16.92,16.92,0,0,0,3.1,1.33l3.56,1.12q1.82.56,3.56,1.24a13.37,13.37,0,0,1,3.1,1.7,8.05,8.05,0,0,1,2.21,2.48,7.12,7.12,0,0,1,.84,3.59,10.86,10.86,0,0,1-.83,4.24A9.63,9.63,0,0,1,268,70.84a11.46,11.46,0,0,1-3.85,2.28,15,15,0,0,1-5.2.84,15.68,15.68,0,0,1-6.35-1.18,17.83,17.83,0,0,1-4.78-3.08l.81-1.24a1.34,1.34,0,0,1,.38-.42,1.07,1.07,0,0,1,.6-.14,1.94,1.94,0,0,1,1.13.56,14,14,0,0,0,1.74,1.24A14.35,14.35,0,0,0,255.13,71a12,12,0,0,0,3.95.56,11.32,11.32,0,0,0,3.9-.62,8.11,8.11,0,0,0,2.8-1.66,7,7,0,0,0,1.7-2.48,7.87,7.87,0,0,0,.58-3,4.83,4.83,0,0,0-.82-2.92,7.23,7.23,0,0,0-2.21-2,15.5,15.5,0,0,0-3.1-1.36l-3.59-1.13q-1.85-.56-3.59-1.24a12.92,12.92,0,0,1-3.1-1.69A8.13,8.13,0,0,1,249.45,51a7.15,7.15,0,0,1-.84-3.64,8.33,8.33,0,0,1,.81-3.59,9.09,9.09,0,0,1,2.3-3,11.3,11.3,0,0,1,3.64-2.07,14.14,14.14,0,0,1,4.81-.77,16.13,16.13,0,0,1,5.67.93,13.85,13.85,0,0,1,4.54,2.83Z"/><path class="cls-1" d="M302.87,73.41a1.24,1.24,0,0,1-1.24-1l-.5-4.45a36.56,36.56,0,0,1-2.87,2.48,17,17,0,0,1-3,1.94,14.57,14.57,0,0,1-3.34,1.18A17.94,17.94,0,0,1,288,74a11.58,11.58,0,0,1-3.47-.52,8.61,8.61,0,0,1-3-1.61,7.94,7.94,0,0,1-2.08-2.79,9.65,9.65,0,0,1-.79-4.09,7.26,7.26,0,0,1,1.24-4.11,10.37,10.37,0,0,1,3.95-3.3,26.05,26.05,0,0,1,6.91-2.25,60,60,0,0,1,10.16-1V50.66a11.71,11.71,0,0,0-2.08-7.44,7.44,7.44,0,0,0-6.2-2.62,11.7,11.7,0,0,0-4.31.69,15.26,15.26,0,0,0-3,1.54,18.61,18.61,0,0,0-2,1.54,2.16,2.16,0,0,1-1.24.71,1.14,1.14,0,0,1-1.05-.63l-.67-1a20.3,20.3,0,0,1,5.76-4.14,16.13,16.13,0,0,1,6.85-1.4,12.41,12.41,0,0,1,5,.89,9.07,9.07,0,0,1,3.49,2.57,11.17,11.17,0,0,1,2.08,4,18.61,18.61,0,0,1,.71,5.29V73.41Zm-14-1.86a14.89,14.89,0,0,0,3.72-.43,13.78,13.78,0,0,0,3.16-1.24A15.43,15.43,0,0,0,298.43,68q1.24-1.09,2.48-2.36V56.56a62.62,62.62,0,0,0-8.59.76A24.81,24.81,0,0,0,286.4,59,8.68,8.68,0,0,0,283,61.46a5.35,5.35,0,0,0-1.1,3.31,7.33,7.33,0,0,0,.58,3A6,6,0,0,0,284,69.92a6,6,0,0,0,2.21,1.24,9,9,0,0,0,2.67.38Z"/><path class="cls-1" d="M326.3,37.88a15.2,15.2,0,0,1,4.23.56A12.69,12.69,0,0,1,334,40h9v1.15q0,.88-1,.94l-5.3.38a10.17,10.17,0,0,1,1.51,3,11.75,11.75,0,0,1,.52,3.56,11.17,11.17,0,0,1-.92,4.58,10.21,10.21,0,0,1-2.54,3.51,11.6,11.6,0,0,1-4,2.3,15.06,15.06,0,0,1-5.06.81,15.63,15.63,0,0,1-5.47-.92,7.21,7.21,0,0,0-2.32,2,3.83,3.83,0,0,0-.84,2.25,2.74,2.74,0,0,0,1.05,2.32,6.86,6.86,0,0,0,2.79,1.18,24.69,24.69,0,0,0,4,.47l4.53.22q2.3.12,4.53.43a14.48,14.48,0,0,1,4,1.1,7,7,0,0,1,2.79,2.21,6.2,6.2,0,0,1,1.05,3.72,8.68,8.68,0,0,1-1.07,4.21A11.17,11.17,0,0,1,338,83a16.64,16.64,0,0,1-5,2.48,21.44,21.44,0,0,1-6.53.93,24.7,24.7,0,0,1-6.46-.76,15.43,15.43,0,0,1-4.65-2,8.93,8.93,0,0,1-2.79-2.93,7.2,7.2,0,0,1-.94-3.59,6.85,6.85,0,0,1,1.82-4.78,11.77,11.77,0,0,1,5-3.09,6.59,6.59,0,0,1-2.79-1.72,4.43,4.43,0,0,1-1-3.13,4.7,4.7,0,0,1,.29-1.55,6.4,6.4,0,0,1,.84-1.6,9,9,0,0,1,1.35-1.49A9.53,9.53,0,0,1,319,58.5a10.43,10.43,0,0,1-3.85-3.87A10.92,10.92,0,0,1,313.74,49a11.36,11.36,0,0,1,.89-4.58,10.21,10.21,0,0,1,2.48-3.52,11.41,11.41,0,0,1,3.95-2.28A15.53,15.53,0,0,1,326.3,37.88Zm12.92,37.84a3.92,3.92,0,0,0-.86-2.66,5.69,5.69,0,0,0-2.3-1.56,13.82,13.82,0,0,0-3.31-.79q-1.89-.22-3.93-.33l-4.12-.21a31.54,31.54,0,0,1-3.86-.42A16.84,16.84,0,0,0,318.36,71a9,9,0,0,0-2,1.56,6.66,6.66,0,0,0-1.24,1.94,5.68,5.68,0,0,0,.33,5.12,7,7,0,0,0,2.32,2.28,12.9,12.9,0,0,0,3.72,1.53,20.74,20.74,0,0,0,5.09.56,19.85,19.85,0,0,0,5-.6,13.91,13.91,0,0,0,4-1.69,8.6,8.6,0,0,0,2.67-2.59A6,6,0,0,0,339.21,75.72ZM326.3,58a11.45,11.45,0,0,0,4-.65,8.3,8.3,0,0,0,3-1.81A7.58,7.58,0,0,0,335,52.73a10.71,10.71,0,0,0,0-7.18,7.62,7.62,0,0,0-1.85-2.79,8.34,8.34,0,0,0-2.9-1.77,11.51,11.51,0,0,0-3.95-.63,11.69,11.69,0,0,0-4,.63,8.3,8.3,0,0,0-3,1.79,7.59,7.59,0,0,0-1.85,2.79,9.93,9.93,0,0,0-.63,3.6,9.78,9.78,0,0,0,.63,3.59,7.64,7.64,0,0,0,1.85,2.78,8.47,8.47,0,0,0,3,1.81A11.35,11.35,0,0,0,326.3,58Z"/><path class="cls-1" d="M363.33,37.92a14.39,14.39,0,0,1,5.46,1,12.3,12.3,0,0,1,4.35,3A13.71,13.71,0,0,1,376,46.69a19,19,0,0,1,1,6.53,1.75,1.75,0,0,1-.22,1.05.87.87,0,0,1-.72.29H350.9v.67a23.66,23.66,0,0,0,.92,6.92,14.18,14.18,0,0,0,2.59,5,10.69,10.69,0,0,0,4.07,3,13.46,13.46,0,0,0,5.33,1,15.93,15.93,0,0,0,4.57-.58,16.92,16.92,0,0,0,3.25-1.24,17.49,17.49,0,0,0,2.08-1.24,2.38,2.38,0,0,1,1.13-.58.81.81,0,0,1,.69.35l.92,1.13a9.59,9.59,0,0,1-2.23,2,15.88,15.88,0,0,1-3.09,1.56,22.67,22.67,0,0,1-3.65,1,20.16,20.16,0,0,1-3.92.38A16.61,16.61,0,0,1,357,72.7,13.88,13.88,0,0,1,352,69.07a16.63,16.63,0,0,1-3.26-5.84,25,25,0,0,1-1.15-7.92,21.62,21.62,0,0,1,1.07-6.94,15.87,15.87,0,0,1,3.09-5.47,14.11,14.11,0,0,1,5-3.6A16.28,16.28,0,0,1,363.33,37.92Zm0,2.48a13.14,13.14,0,0,0-4.84.84,10.6,10.6,0,0,0-3.72,2.48,12.41,12.41,0,0,0-2.48,3.8,17.37,17.37,0,0,0-1.24,5h23a15.37,15.37,0,0,0-.77-5,10.82,10.82,0,0,0-2.17-3.72,9.39,9.39,0,0,0-3.36-2.37,11.17,11.17,0,0,0-4.37-.94Z"/><path class="cls-1" d="M401.88,23.18a17.9,17.9,0,0,1,5.37.79,13,13,0,0,1,4.44,2.37,11.33,11.33,0,0,1,3,3.93,12.57,12.57,0,0,1,1.12,5.45,12.06,12.06,0,0,1-.76,4.37A11.17,11.17,0,0,1,413,43.46a11.91,11.91,0,0,1-3.1,2.48,15.83,15.83,0,0,1-3.9,1.53,13.91,13.91,0,0,1,8.26,4.23,11.8,11.8,0,0,1,2.79,8,13.16,13.16,0,0,1-1.24,5.67,13.77,13.77,0,0,1-3.37,4.52,15.68,15.68,0,0,1-5.06,3,18.16,18.16,0,0,1-6.32,1.07A19,19,0,0,1,394,72.8a13.35,13.35,0,0,1-7.44-7.06,32.26,32.26,0,0,1-1.65-4.52l1.34-.56a2.1,2.1,0,0,1,.81-.17,1.63,1.63,0,0,1,.73.17,1.12,1.12,0,0,1,.52.67l.25.71q.21.63.6,1.56a13.5,13.5,0,0,0,1,1.94,13.31,13.31,0,0,0,1.53,2,9.93,9.93,0,0,0,2.23,1.79A12.47,12.47,0,0,0,397,70.57a15.37,15.37,0,0,0,4.09.5A13.54,13.54,0,0,0,406.64,70a12.72,12.72,0,0,0,4-2.69A10.84,10.84,0,0,0,413,63.67a10.71,10.71,0,0,0,.79-3.92,12.27,12.27,0,0,0-.72-4.24,8,8,0,0,0-2.41-3.36,12.28,12.28,0,0,0-4.44-2.25,24,24,0,0,0-6.8-.83V46.59a20,20,0,0,0,5.68-.86,12.22,12.22,0,0,0,4.11-2.16,8.92,8.92,0,0,0,2.48-3.26,10.2,10.2,0,0,0,.84-4.18,11,11,0,0,0-.88-4.57,9.12,9.12,0,0,0-2.36-3.2,9.39,9.39,0,0,0-3.44-1.86,14,14,0,0,0-4.11-.6,12.75,12.75,0,0,0-4.32.71,11,11,0,0,0-6,5,14.13,14.13,0,0,0-1.51,3.95q-.29,1.24-1.24,1.24a1.67,1.67,0,0,1-.38,0l-1.72-.29a17.6,17.6,0,0,1,1.75-5.68,14.07,14.07,0,0,1,3.3-4.22A13.91,13.91,0,0,1,396.25,24,17.58,17.58,0,0,1,401.88,23.18Z"/><path class="cls-1" d="M443.13,43.71A16.13,16.13,0,0,1,449,44.76a13.26,13.26,0,0,1,7.7,7.61,16.05,16.05,0,0,1,1.1,6.09,15.69,15.69,0,0,1-1.24,6.2,14.73,14.73,0,0,1-3.37,5A15.32,15.32,0,0,1,448,72.85,18.39,18.39,0,0,1,441.41,74a17.37,17.37,0,0,1-6.35-1.13,13.76,13.76,0,0,1-5-3.23,14.38,14.38,0,0,1-3.18-5.15,19.64,19.64,0,0,1-1.13-6.86,17.92,17.92,0,0,1,1.48-6.59,38.46,38.46,0,0,1,4.85-8.24l13.55-18.26a2.08,2.08,0,0,1,1.79-.81h3L435.65,43.08q-1.09,1.44-2,2.7T432,48.26a14.89,14.89,0,0,1,5-3.35A15.71,15.71,0,0,1,443.13,43.71Zm-14,14.71a14.79,14.79,0,0,0,.86,5.12,11.89,11.89,0,0,0,2.48,4.06,10.91,10.91,0,0,0,3.86,2.66,13.26,13.26,0,0,0,5.12.94,14.89,14.89,0,0,0,5.45-.94A12.16,12.16,0,0,0,451,67.64a11.31,11.31,0,0,0,2.62-4,13.44,13.44,0,0,0,.92-5,14,14,0,0,0-.89-5.15,10.88,10.88,0,0,0-2.48-3.9,11.17,11.17,0,0,0-3.88-2.48,13.87,13.87,0,0,0-5-.86,13.65,13.65,0,0,0-5.53,1.07,13.15,13.15,0,0,0-4.13,2.78,11.89,11.89,0,0,0-3.44,8.26Z"/><path class="cls-1" d="M500,48.55a40.33,40.33,0,0,1-1.4,11.3,23.66,23.66,0,0,1-3.82,7.9,15.52,15.52,0,0,1-5.67,4.65,16.45,16.45,0,0,1-13.85,0,15.55,15.55,0,0,1-5.66-4.65,23.42,23.42,0,0,1-3.81-7.9,40.74,40.74,0,0,1-1.39-11.3,40.74,40.74,0,0,1,1.35-11.29,23.44,23.44,0,0,1,3.81-7.9,15.56,15.56,0,0,1,5.62-4.65,16.48,16.48,0,0,1,13.85,0,15.53,15.53,0,0,1,5.67,4.65,23.66,23.66,0,0,1,3.87,7.9A40.34,40.34,0,0,1,500,48.55Zm-3.51,0a40,40,0,0,0-1.15-10.32,21.71,21.71,0,0,0-3.1-7,12.13,12.13,0,0,0-4.64-4,12.54,12.54,0,0,0-11,0,12.31,12.31,0,0,0-4.57,4,21.43,21.43,0,0,0-3.08,7,40,40,0,0,0-1.15,10.32A40,40,0,0,0,469,58.89a21.4,21.4,0,0,0,3.13,7,12.13,12.13,0,0,0,4.57,4,12.7,12.7,0,0,0,11,0,12,12,0,0,0,4.57-4,21.69,21.69,0,0,0,3.1-7,40,40,0,0,0,1.15-10.35Z"/><path class="cls-2" d="M98.44,42.65V42A47.68,47.68,0,0,0,84.37,14.35,45.24,45.24,0,0,0,70,4.24V4.07q-1.71-.68-3.25-1.24h-.35a13.32,13.32,0,0,0-2.74-1q-12.41-3.6-28.3,0A47.32,47.32,0,0,0,14.4,14.35q-1.89,2.06-3.95,4.12a6.54,6.54,0,0,0-.35.86A45.91,45.91,0,0,0,.68,40.42V41A51,51,0,0,0,0,49.34,52.26,52.26,0,0,0,2.06,64.08v.17A50.68,50.68,0,0,0,14.47,84.32a29.78,29.78,0,0,0,5,4.29l.17.17A46.87,46.87,0,0,0,49.38,98.91a31.3,31.3,0,0,0,3.42-.17h.35a49.33,49.33,0,0,0,9.43-1.54.5.5,0,0,0,.35-.17h.17c0-.11.11-.17.35-.17h.35A47.54,47.54,0,0,0,84.37,84.32q2.06-2.06,3.95-4.29a.48.48,0,0,1,.17-.35A46.62,46.62,0,0,0,98.94,49.33,42.89,42.89,0,0,0,98.44,42.65ZM80.77,17.84a41.67,41.67,0,0,1,12.52,24,82.58,82.58,0,0,1-9.59,9.57,6.41,6.41,0,0,0-3.8-1.17,7.28,7.28,0,0,0-1.34.12q1.95-18-5-38.54a50.23,50.23,0,0,1,7.2,6ZM26.05,60.25a6.41,6.41,0,0,0-4.74-1.9h-.45A51.48,51.48,0,0,1,31.5,32.08a6.48,6.48,0,0,0,.62.33,85.61,85.61,0,0,0,8.82,34.93,90,90,0,0,1-13.14-.71A6.71,6.71,0,0,0,28,65,6.55,6.55,0,0,0,26.05,60.25ZM37.22,32.56A6.45,6.45,0,0,0,39.58,31a6.3,6.3,0,0,0,1.81-3.11q20.77,7.07,32,24a65.52,65.52,0,0,1-1.59,7.69,65.36,65.36,0,0,1-25.38,7.54A79.89,79.89,0,0,1,37.22,32.56ZM65.76,7.84A3.78,3.78,0,0,1,67,8.35q7.44,19,6.91,35.84Q61.74,28.76,40.82,22.37A97.67,97.67,0,0,1,65.68,7.84ZM40.94,5.61a42,42,0,0,1,8.57-.86,45.45,45.45,0,0,1,8.8.86A90.42,90.42,0,0,0,37.9,18.47,72,72,0,0,1,40.82,5.61ZM18,17.79A42.37,42.37,0,0,1,35.15,7.16,79.28,79.28,0,0,0,32.67,19.9a6.45,6.45,0,0,0-.77.31,87,87,0,0,0-14.21-2.07Zm-7.37,8.4a52.38,52.38,0,0,1,17.68-1.61,7.06,7.06,0,0,0-.22,1.69,6.86,6.86,0,0,0,.27,1.85A57.39,57.39,0,0,0,16.13,55.87,127.26,127.26,0,0,1,5.83,40.59Q7.72,30.82,10.63,26.19ZM5,49.34v-.51a125.75,125.75,0,0,0,10.17,13.5,6.54,6.54,0,0,0-.45,1.56c-2.63-.66-5.35-1.44-8.18-2.37A47.42,47.42,0,0,1,5,49.34Zm3.6,18q3.6,1,7,1.89a87.36,87.36,0,0,0,1,10.46A45,45,0,0,1,8.57,67.34ZM52,93.92H49.39A42,42,0,0,1,23,85.23a91,91,0,0,1-2.28-13.46h.61a6.51,6.51,0,0,0,2.15-.37A137.94,137.94,0,0,0,52.82,92.9a6.87,6.87,0,0,0-.86,1ZM31.55,72.15a82.62,82.62,0,0,0,11.84.17A121.74,121.74,0,0,0,53.51,87.58,126,126,0,0,1,31.55,72.15ZM58.65,86a115.73,115.73,0,0,1-9.78-14A81.13,81.13,0,0,0,70,66.17,79.25,79.25,0,0,1,58.65,86Zm22.12-5.15A44.35,44.35,0,0,1,64.83,91.35Q68.24,86,76.14,62.72l.19-.11a6.4,6.4,0,0,0,3.1,1A101.46,101.46,0,0,1,83.7,78ZM94,49.34a43.21,43.21,0,0,1-6.51,23.32A78,78,0,0,0,84,62.15a7.06,7.06,0,0,0,.58-.51,6.29,6.29,0,0,0,2-4.71,6.92,6.92,0,0,0-.15-1.43,81.42,81.42,0,0,0,7.44-7Z"/></g></g><path class="cls-3" d="M351.26,94.71l-.79,6.44h-2.23L350.33,84h4.73a7.77,7.77,0,0,1,2.37.32,4.41,4.41,0,0,1,1.66.92,3.76,3.76,0,0,1,1,1.44,5.15,5.15,0,0,1,.32,1.87A6.76,6.76,0,0,1,360,91,5.41,5.41,0,0,1,358.67,93a5.93,5.93,0,0,1-2.08,1.28,8.08,8.08,0,0,1-2.83.46Zm1.1-9-.89,7.19H354a4.81,4.81,0,0,0,1.8-.31,3.62,3.62,0,0,0,1.31-.87,3.72,3.72,0,0,0,.8-1.33,5,5,0,0,0,.28-1.68,3.58,3.58,0,0,0-.2-1.25,2.46,2.46,0,0,0-.61-.94,2.72,2.72,0,0,0-1-.6,4.55,4.55,0,0,0-1.45-.21Z"/><path class="cls-3" d="M365,101.33a4.72,4.72,0,0,1-1.82-.34,4,4,0,0,1-1.43-1,4.55,4.55,0,0,1-.93-1.58,6.29,6.29,0,0,1-.33-2.13,8.59,8.59,0,0,1,.48-2.89A7.84,7.84,0,0,1,362.23,91a6.19,6.19,0,0,1,2-1.6,5.24,5.24,0,0,1,2.45-.59,4.73,4.73,0,0,1,1.82.34,4,4,0,0,1,1.43,1,4.56,4.56,0,0,1,.93,1.59,6.3,6.3,0,0,1,.33,2.13,8.55,8.55,0,0,1-.48,2.88,7.85,7.85,0,0,1-1.31,2.37,6.27,6.27,0,0,1-2,1.61A5.22,5.22,0,0,1,365,101.33Zm.19-1.67a2.81,2.81,0,0,0,1.59-.48A4.19,4.19,0,0,0,368,97.91a6.55,6.55,0,0,0,.78-1.84,8.51,8.51,0,0,0,.28-2.18,4.08,4.08,0,0,0-.66-2.53,2.26,2.26,0,0,0-1.9-.85,2.83,2.83,0,0,0-1.6.47,4.17,4.17,0,0,0-1.22,1.27,6.54,6.54,0,0,0-.78,1.84,8.45,8.45,0,0,0-.28,2.18,4.14,4.14,0,0,0,.65,2.53A2.26,2.26,0,0,0,365.15,99.66Z"/><path class="cls-3" d="M372.55,89h1.59a.6.6,0,0,1,.39.12.47.47,0,0,1,.17.32l1.11,7.81a6.38,6.38,0,0,1,.07.81q0,.39,0,.77l.29-.77.32-.81,3.32-7.86a.69.69,0,0,1,.23-.3.6.6,0,0,1,.37-.12h.89a.53.53,0,0,1,.37.12.48.48,0,0,1,.16.3l1.35,7.86c0,.28.08.55.11.81s.05.53.08.79c.08-.25.16-.52.23-.78a8.51,8.51,0,0,1,.28-.82L387,89.47a.69.69,0,0,1,.24-.32.62.62,0,0,1,.38-.13h1.53L384,101.16h-1.62q-.28,0-.35-.41l-1.47-8.23c0-.13,0-.26-.06-.39l0-.39-.12.4q-.06.19-.14.4l-3.51,8.22c-.11.27-.27.41-.48.41h-1.56Z"/><path class="cls-3" d="M398.9,91.62a3.28,3.28,0,0,1-.32,1.46,3,3,0,0,1-1.19,1.2,8.81,8.81,0,0,1-2.37.93,26.2,26.2,0,0,1-3.88.64c0,.09,0,.17,0,.26v.26a3.75,3.75,0,0,0,.7,2.45,2.59,2.59,0,0,0,2.12.84,4,4,0,0,0,1-.12,4.35,4.35,0,0,0,.8-.29,3.57,3.57,0,0,0,.62-.38l.5-.38.42-.29a.72.72,0,0,1,.38-.12.53.53,0,0,1,.4.2l.53.66a11,11,0,0,1-1.19,1.08,6.89,6.89,0,0,1-1.19.75,5.37,5.37,0,0,1-1.28.44,7.06,7.06,0,0,1-1.43.14,4.78,4.78,0,0,1-1.87-.35,3.86,3.86,0,0,1-1.4-1,4.44,4.44,0,0,1-.89-1.55,6.25,6.25,0,0,1-.31-2,8.91,8.91,0,0,1,.2-1.86,8.71,8.71,0,0,1,.58-1.77,8,8,0,0,1,.92-1.56A6.22,6.22,0,0,1,392,90a5.83,5.83,0,0,1,1.55-.82,5.38,5.38,0,0,1,1.81-.3,4.35,4.35,0,0,1,1.59.26,3.39,3.39,0,0,1,1.1.67,2.69,2.69,0,0,1,.64.9A2.38,2.38,0,0,1,398.9,91.62Zm-3.67-1.23a3.12,3.12,0,0,0-1.39.31,3.72,3.72,0,0,0-1.13.86,5.23,5.23,0,0,0-.84,1.28,7.57,7.57,0,0,0-.54,1.59,23.29,23.29,0,0,0,3-.52,7.4,7.4,0,0,0,1.71-.64,1.65,1.65,0,0,0,1-1.56,1.21,1.21,0,0,0-.4-.87,1.68,1.68,0,0,0-.55-.32A2.32,2.32,0,0,0,395.23,90.39Z"/><path class="cls-3" d="M400,101.16,401.46,89h1.07a.82.82,0,0,1,.53.16.58.58,0,0,1,.19.48s0,.08,0,.14v.35s0,.08,0,.08l-.17,2.2a8.37,8.37,0,0,1,1.74-2.59,2.94,2.94,0,0,1,2-.91,2.52,2.52,0,0,1,1,.22l-.38,2a2.91,2.91,0,0,0-1.09-.23,2.63,2.63,0,0,0-2.07,1.13,9.39,9.39,0,0,0-1.52,3.43l-.67,5.63Z"/><path class="cls-3" d="M417.39,91.62a3.28,3.28,0,0,1-.32,1.46,3,3,0,0,1-1.19,1.2,8.81,8.81,0,0,1-2.37.93,26.2,26.2,0,0,1-3.88.64c0,.09,0,.17,0,.26v.26a3.75,3.75,0,0,0,.7,2.45,2.59,2.59,0,0,0,2.12.84,4,4,0,0,0,1-.12,4.35,4.35,0,0,0,.8-.29,3.57,3.57,0,0,0,.62-.38l.5-.38.42-.29a.72.72,0,0,1,.38-.12.53.53,0,0,1,.4.2l.53.66a11,11,0,0,1-1.19,1.08,6.89,6.89,0,0,1-1.19.75,5.37,5.37,0,0,1-1.28.44,7.06,7.06,0,0,1-1.43.14,4.78,4.78,0,0,1-1.87-.35,3.86,3.86,0,0,1-1.4-1,4.44,4.44,0,0,1-.89-1.55,6.25,6.25,0,0,1-.31-2,8.91,8.91,0,0,1,.2-1.86,8.71,8.71,0,0,1,.58-1.77,8,8,0,0,1,.92-1.56A6.22,6.22,0,0,1,410.49,90a5.83,5.83,0,0,1,1.55-.82,5.38,5.38,0,0,1,1.81-.3,4.35,4.35,0,0,1,1.59.26,3.39,3.39,0,0,1,1.1.67,2.69,2.69,0,0,1,.64.9A2.38,2.38,0,0,1,417.39,91.62Zm-3.67-1.23a3.12,3.12,0,0,0-1.39.31,3.72,3.72,0,0,0-1.13.86,5.23,5.23,0,0,0-.84,1.28,7.57,7.57,0,0,0-.54,1.59,23.29,23.29,0,0,0,3-.52,7.4,7.4,0,0,0,1.71-.64,1.65,1.65,0,0,0,1-1.56,1.21,1.21,0,0,0-.4-.87,1.68,1.68,0,0,0-.55-.32A2.32,2.32,0,0,0,413.73,90.39Z"/><path class="cls-3" d="M426.7,101.16a.65.65,0,0,1-.57-.22.9.9,0,0,1-.15-.53l.23-2.53a9.92,9.92,0,0,1-1,1.41,7.21,7.21,0,0,1-1.13,1.08,5,5,0,0,1-1.23.69,3.6,3.6,0,0,1-1.3.25,2.85,2.85,0,0,1-2.41-1.13,5.38,5.38,0,0,1-.86-3.29,9.65,9.65,0,0,1,.2-2,10.13,10.13,0,0,1,.58-1.88,9.14,9.14,0,0,1,.91-1.67,7,7,0,0,1,1.19-1.34,5.36,5.36,0,0,1,1.42-.89,4.08,4.08,0,0,1,1.61-.32,3.76,3.76,0,0,1,1.62.35,3.47,3.47,0,0,1,1.25,1l.83-6.67H430l-2.18,17.65Zm-4.35-1.54a2.22,2.22,0,0,0,1.16-.35,4.88,4.88,0,0,0,1.13-1,8.44,8.44,0,0,0,1-1.5,12,12,0,0,0,.82-1.9l.39-3.21a2.54,2.54,0,0,0-1.09-.9,3.31,3.31,0,0,0-1.28-.26,2.8,2.8,0,0,0-1.71.56,4.93,4.93,0,0,0-1.29,1.46,7.63,7.63,0,0,0-.82,2,8.59,8.59,0,0,0-.29,2.17,3.82,3.82,0,0,0,.52,2.17A1.66,1.66,0,0,0,422.35,99.61Z"/><path class="cls-3" d="M435.34,101.16l2.13-17.65h2.1l-1.05,8.58a10.3,10.3,0,0,1,1-1.34,6.74,6.74,0,0,1,1.1-1,5,5,0,0,1,1.2-.65,3.6,3.6,0,0,1,1.27-.23A2.86,2.86,0,0,1,445.47,90a5.35,5.35,0,0,1,.86,3.29,9.65,9.65,0,0,1-.2,2,10,10,0,0,1-.58,1.88,9.28,9.28,0,0,1-.91,1.67,7.22,7.22,0,0,1-1.19,1.34A5.3,5.3,0,0,1,442,101a4.1,4.1,0,0,1-1.61.32,3.75,3.75,0,0,1-1.75-.41,3.43,3.43,0,0,1-1.29-1.16l-.16.78a1.16,1.16,0,0,1-.25.47.69.69,0,0,1-.51.16Zm6.92-10.6a2.22,2.22,0,0,0-1.16.36,4.87,4.87,0,0,0-1.13,1,8.83,8.83,0,0,0-1,1.51,11.65,11.65,0,0,0-.83,1.92l-.38,3.15a2.56,2.56,0,0,0,1.09.92,3.28,3.28,0,0,0,1.29.27,2.69,2.69,0,0,0,1.17-.26,3.7,3.7,0,0,0,1-.71,5.16,5.16,0,0,0,.81-1.05,7.44,7.44,0,0,0,.61-1.29,9,9,0,0,0,.38-1.43,8.25,8.25,0,0,0,.13-1.46,3.79,3.79,0,0,0-.52-2.17A1.66,1.66,0,0,0,442.26,90.56Z"/><path class="cls-3" d="M450.51,104.78a.8.8,0,0,1-.74.49h-1.56l2.62-4.83L447.7,89h1.76a.51.51,0,0,1,.38.13.67.67,0,0,1,.17.32l2,7.64c0,.17.07.33.1.5s0,.34.06.5l.21-.51a5.06,5.06,0,0,1,.23-.51l3.83-7.66a.78.78,0,0,1,.27-.31A.64.64,0,0,1,457,89h1.69Z"/><path class="cls-3" d="M470.5,94.29l-.85,6.86H467.4l.85-6.84L463.73,84h2a.63.63,0,0,1,.46.15,1.12,1.12,0,0,1,.25.38l2.85,6.88c.08.23.15.45.2.66s.1.42.14.62c.1-.21.2-.42.32-.62l.38-.66,4.56-6.88a1.79,1.79,0,0,1,.33-.36.72.72,0,0,1,.49-.17h1.86Z"/><path class="cls-3" d="M477.9,98.87s0-.11,0-.19,0-.19,0-.33,0-.33.05-.56.06-.54.11-.91l.75-6.07h-1.35a.37.37,0,0,1-.26-.09.36.36,0,0,1-.1-.28s0-.07,0-.14l0-.25,0-.28c0-.1,0-.19,0-.28l1.87-.25.9-3.75a.57.57,0,0,1,.18-.29.48.48,0,0,1,.32-.11h1.13l-.53,4.18h3.19l-.18,1.55h-3.2l-.73,6c0,.33-.07.59-.09.79l0,.48,0,.25s0,.08,0,.11a1.27,1.27,0,0,0,.28.9,1,1,0,0,0,.77.29,1.54,1.54,0,0,0,.55-.09,2.31,2.31,0,0,0,.41-.2l.29-.2a.37.37,0,0,1,.22-.09.22.22,0,0,1,.15,0,.58.58,0,0,1,.11.16l.44,1a4.37,4.37,0,0,1-1.32.81,4.1,4.1,0,0,1-1.5.29,2.55,2.55,0,0,1-1.83-.63A2.49,2.49,0,0,1,477.9,98.87Z"/><path class="cls-3" d="M494.51,91.62a3.28,3.28,0,0,1-.32,1.46,3,3,0,0,1-1.19,1.2,8.81,8.81,0,0,1-2.37.93,26.2,26.2,0,0,1-3.88.64c0,.09,0,.17,0,.26v.26a3.75,3.75,0,0,0,.7,2.45,2.59,2.59,0,0,0,2.12.84,4,4,0,0,0,1-.12,4.35,4.35,0,0,0,.8-.29,3.57,3.57,0,0,0,.62-.38l.5-.38.42-.29a.72.72,0,0,1,.38-.12.53.53,0,0,1,.4.2l.53.66A11,11,0,0,1,493,100a6.89,6.89,0,0,1-1.19.75,5.37,5.37,0,0,1-1.28.44,7.06,7.06,0,0,1-1.43.14,4.78,4.78,0,0,1-1.87-.35,3.86,3.86,0,0,1-1.4-1,4.44,4.44,0,0,1-.89-1.55,6.25,6.25,0,0,1-.31-2,8.91,8.91,0,0,1,.2-1.86,8.71,8.71,0,0,1,.58-1.77,8,8,0,0,1,.92-1.56A6.22,6.22,0,0,1,487.61,90a5.83,5.83,0,0,1,1.55-.82,5.38,5.38,0,0,1,1.81-.3,4.35,4.35,0,0,1,1.59.26,3.39,3.39,0,0,1,1.1.67,2.69,2.69,0,0,1,.64.9A2.38,2.38,0,0,1,494.51,91.62Zm-3.67-1.23a3.12,3.12,0,0,0-1.39.31,3.72,3.72,0,0,0-1.13.86,5.23,5.23,0,0,0-.84,1.28,7.57,7.57,0,0,0-.54,1.59,23.29,23.29,0,0,0,3-.52,7.4,7.4,0,0,0,1.71-.64,1.65,1.65,0,0,0,1-1.56,1.21,1.21,0,0,0-.4-.87,1.68,1.68,0,0,0-.55-.32A2.32,2.32,0,0,0,490.85,90.39Z"/><path class="cls-3" d="M495.82,101.16,498,83.51h2.1l-2.14,17.65Z"/></g></g></svg>